# xmcd CD database file
#
# Track frame offsets:
#	150
#	34019
#	61147
#	102972
#	140261
#
# Disc length: 2158 seconds
#
# Revision: 0
# Processed by: cddbd v1.4PL0 Copyright (c) Steve Scherf et al.
# Submitted via: CDex 1.51
#
DISCID=39086c05
DTITLE=Zodiac Collection Sagitarius - Tony O Connor
DYEAR=2001
DGENRE=New Age
TTITLE0=Sagittarius 01
TTITLE1=Sagittarius 02
TTITLE2=Sagittarius 03
TTITLE3=Sagittarius 04
TTITLE4=Sagittarius 05
EXTD=YEAR: 2001
EXTT0=
EXTT1=
EXTT2=
EXTT3=
EXTT4=
PLAYORDER=
